<mxfile host="app.diagrams.net" modified="2024-06-14T14:27:46.764Z" agent="Mozilla/5.0 (Windows NT 10.0; Win64; x64) AppleWebKit/537.36 (KHTML, like Gecko) Chrome/109.0.0.0 Safari/537.36" etag="vb0f1VOLOqcPQCOkw0ci" version="24.5.4" type="github">
  <diagram name="Page-1" id="-VHD_CLYdg0AdR9Jn5gR">
    <mxGraphModel dx="1434" dy="707" grid="1" gridSize="10" guides="1" tooltips="1" connect="1" arrows="1" fold="1" page="1" pageScale="1" pageWidth="850" pageHeight="1100" math="0" shadow="0">
      <root>
        <mxCell id="0" />
        <mxCell id="1" parent="0" />
        <mxCell id="laANaXhgBa1lq1NqS_7K-1" value="Classname" style="swimlane;fontStyle=1;align=center;verticalAlign=top;childLayout=stackLayout;horizontal=1;startSize=26;horizontalStack=0;resizeParent=1;resizeParentMax=0;resizeLast=0;collapsible=1;marginBottom=0;whiteSpace=wrap;html=1;" vertex="1" parent="1">
          <mxGeometry x="240" y="40" width="160" height="120" as="geometry" />
        </mxCell>
        <mxCell id="laANaXhgBa1lq1NqS_7K-2" value="+ field: type" style="text;strokeColor=none;fillColor=none;align=left;verticalAlign=top;spacingLeft=4;spacingRight=4;overflow=hidden;rotatable=0;points=[[0,0.5],[1,0.5]];portConstraint=eastwest;whiteSpace=wrap;html=1;" vertex="1" parent="laANaXhgBa1lq1NqS_7K-1">
          <mxGeometry y="26" width="160" height="26" as="geometry" />
        </mxCell>
        <mxCell id="laANaXhgBa1lq1NqS_7K-3" value="" style="line;strokeWidth=1;fillColor=none;align=left;verticalAlign=middle;spacingTop=-1;spacingLeft=3;spacingRight=3;rotatable=0;labelPosition=right;points=[];portConstraint=eastwest;strokeColor=inherit;" vertex="1" parent="laANaXhgBa1lq1NqS_7K-1">
          <mxGeometry y="52" width="160" height="8" as="geometry" />
        </mxCell>
        <mxCell id="laANaXhgBa1lq1NqS_7K-4" value="+ method(type): type" style="text;strokeColor=none;fillColor=none;align=left;verticalAlign=top;spacingLeft=4;spacingRight=4;overflow=hidden;rotatable=0;points=[[0,0.5],[1,0.5]];portConstraint=eastwest;whiteSpace=wrap;html=1;" vertex="1" parent="laANaXhgBa1lq1NqS_7K-1">
          <mxGeometry y="60" width="160" height="30" as="geometry" />
        </mxCell>
        <mxCell id="laANaXhgBa1lq1NqS_7K-51" value="+ &lt;u&gt;staticmethod&lt;/u&gt;(type): type" style="text;strokeColor=none;fillColor=none;align=left;verticalAlign=top;spacingLeft=4;spacingRight=4;overflow=hidden;rotatable=0;points=[[0,0.5],[1,0.5]];portConstraint=eastwest;whiteSpace=wrap;html=1;" vertex="1" parent="laANaXhgBa1lq1NqS_7K-1">
          <mxGeometry y="90" width="160" height="30" as="geometry" />
        </mxCell>
        <mxCell id="laANaXhgBa1lq1NqS_7K-6" value="&lt;ul style=&quot;box-sizing: border-box; --un-rotate:0; --un-rotate-x:0; --un-rotate-y:0; --un-rotate-z:0; --un-scale-x:1; --un-scale-y:1; --un-scale-z:1; --un-skew-x:0; --un-skew-y:0; --un-translate-x:0; --un-translate-y:0; --un-translate-z:0; --un-pan-x: ; --un-pan-y: ; --un-pinch-zoom: ; --un-scroll-snap-strictness:proximity; --un-ordinal: ; --un-slashed-zero: ; --un-numeric-figure: ; --un-numeric-spacing: ; --un-numeric-fraction: ; --un-border-spacing-x:0; --un-border-spacing-y:0; --un-ring-offset-shadow:0 0 rgb(0 0 0 / 0); --un-ring-shadow:0 0 rgb(0 0 0 / 0); --un-shadow-inset: ; --un-shadow:0 0 rgb(0 0 0 / 0); --un-ring-inset: ; --un-ring-offset-width:0px; --un-ring-offset-color:#fff; --un-ring-width:0px; --un-ring-color:rgb(147 197 253 / 0.5); --un-blur: ; --un-brightness: ; --un-contrast: ; --un-drop-shadow: ; --un-grayscale: ; --un-hue-rotate: ; --un-invert: ; --un-saturate: ; --un-sepia: ; --un-backdrop-blur: ; --un-backdrop-brightness: ; --un-backdrop-contrast: ; --un-backdrop-grayscale: ; --un-backdrop-hue-rotate: ; --un-backdrop-invert: ; --un-backdrop-opacity: ; --un-backdrop-saturate: ; --un-backdrop-sepia: ; list-style-position: initial; list-style-image: initial; margin: 16px 0px; padding: 0px 0px 0px 1.25rem; color: rgb(60, 60, 67); font-family: &amp;quot;Chinese Quotes&amp;quot;, &amp;quot;Inter var&amp;quot;, Inter, ui-sans-serif, system-ui, -apple-system, BlinkMacSystemFont, &amp;quot;Segoe UI&amp;quot;, Roboto, &amp;quot;Helvetica Neue&amp;quot;, Helvetica, Arial, &amp;quot;Noto Sans&amp;quot;, sans-serif, &amp;quot;Apple Color Emoji&amp;quot;, &amp;quot;Segoe UI Emoji&amp;quot;, &amp;quot;Segoe UI Symbol&amp;quot;, &amp;quot;Noto Color Emoji&amp;quot;; font-size: 16px; text-align: start; background-color: rgb(255, 255, 255);&quot;&gt;&lt;li style=&quot;box-sizing: border-box; --un-rotate:0; --un-rotate-x:0; --un-rotate-y:0; --un-rotate-z:0; --un-scale-x:1; --un-scale-y:1; --un-scale-z:1; --un-skew-x:0; --un-skew-y:0; --un-translate-x:0; --un-translate-y:0; --un-translate-z:0; --un-pan-x: ; --un-pan-y: ; --un-pinch-zoom: ; --un-scroll-snap-strictness:proximity; --un-ordinal: ; --un-slashed-zero: ; --un-numeric-figure: ; --un-numeric-spacing: ; --un-numeric-fraction: ; --un-border-spacing-x:0; --un-border-spacing-y:0; --un-ring-offset-shadow:0 0 rgb(0 0 0 / 0); --un-ring-shadow:0 0 rgb(0 0 0 / 0); --un-shadow-inset: ; --un-shadow:0 0 rgb(0 0 0 / 0); --un-ring-inset: ; --un-ring-offset-width:0px; --un-ring-offset-color:#fff; --un-ring-width:0px; --un-ring-color:rgb(147 197 253 / 0.5); --un-blur: ; --un-brightness: ; --un-contrast: ; --un-drop-shadow: ; --un-grayscale: ; --un-hue-rotate: ; --un-invert: ; --un-saturate: ; --un-sepia: ; --un-backdrop-blur: ; --un-backdrop-brightness: ; --un-backdrop-contrast: ; --un-backdrop-grayscale: ; --un-backdrop-hue-rotate: ; --un-backdrop-invert: ; --un-backdrop-opacity: ; --un-backdrop-saturate: ; --un-backdrop-sepia: ; overflow-wrap: break-word;&quot;&gt;&lt;code style=&quot;box-sizing: border-box; --un-rotate:0; --un-rotate-x:0; --un-rotate-y:0; --un-rotate-z:0; --un-scale-x:1; --un-scale-y:1; --un-scale-z:1; --un-skew-x:0; --un-skew-y:0; --un-translate-x:0; --un-translate-y:0; --un-translate-z:0; --un-pan-x: ; --un-pan-y: ; --un-pinch-zoom: ; --un-scroll-snap-strictness:proximity; --un-ordinal: ; --un-slashed-zero: ; --un-numeric-figure: ; --un-numeric-spacing: ; --un-numeric-fraction: ; --un-border-spacing-x:0; --un-border-spacing-y:0; --un-ring-offset-shadow:0 0 rgb(0 0 0 / 0); --un-ring-shadow:0 0 rgb(0 0 0 / 0); --un-shadow-inset: ; --un-shadow:0 0 rgb(0 0 0 / 0); --un-ring-inset: ; --un-ring-offset-width:0px; --un-ring-offset-color:#fff; --un-ring-width:0px; --un-ring-color:rgb(147 197 253 / 0.5); --un-blur: ; --un-brightness: ; --un-contrast: ; --un-drop-shadow: ; --un-grayscale: ; --un-hue-rotate: ; --un-invert: ; --un-saturate: ; --un-sepia: ; --un-backdrop-blur: ; --un-backdrop-brightness: ; --un-backdrop-contrast: ; --un-backdrop-grayscale: ; --un-backdrop-hue-rotate: ; --un-backdrop-invert: ; --un-backdrop-opacity: ; --un-backdrop-saturate: ; --un-backdrop-sepia: ; font-family: var(--vp-font-family-mono); font-size: var(--vp-code-font-size); color: var(--vp-code-color); border-radius: 4px; padding: 3px 6px; background-color: var(--vp-code-bg); transition: color 0.25s ease 0s, background-color 0.5s ease 0s;&quot;&gt;+&lt;/code&gt;&amp;nbsp;Public&lt;/li&gt;&lt;li style=&quot;box-sizing: border-box; --un-rotate:0; --un-rotate-x:0; --un-rotate-y:0; --un-rotate-z:0; --un-scale-x:1; --un-scale-y:1; --un-scale-z:1; --un-skew-x:0; --un-skew-y:0; --un-translate-x:0; --un-translate-y:0; --un-translate-z:0; --un-pan-x: ; --un-pan-y: ; --un-pinch-zoom: ; --un-scroll-snap-strictness:proximity; --un-ordinal: ; --un-slashed-zero: ; --un-numeric-figure: ; --un-numeric-spacing: ; --un-numeric-fraction: ; --un-border-spacing-x:0; --un-border-spacing-y:0; --un-ring-offset-shadow:0 0 rgb(0 0 0 / 0); --un-ring-shadow:0 0 rgb(0 0 0 / 0); --un-shadow-inset: ; --un-shadow:0 0 rgb(0 0 0 / 0); --un-ring-inset: ; --un-ring-offset-width:0px; --un-ring-offset-color:#fff; --un-ring-width:0px; --un-ring-color:rgb(147 197 253 / 0.5); --un-blur: ; --un-brightness: ; --un-contrast: ; --un-drop-shadow: ; --un-grayscale: ; --un-hue-rotate: ; --un-invert: ; --un-saturate: ; --un-sepia: ; --un-backdrop-blur: ; --un-backdrop-brightness: ; --un-backdrop-contrast: ; --un-backdrop-grayscale: ; --un-backdrop-hue-rotate: ; --un-backdrop-invert: ; --un-backdrop-opacity: ; --un-backdrop-saturate: ; --un-backdrop-sepia: ; overflow-wrap: break-word; margin-top: 8px;&quot;&gt;&lt;code style=&quot;box-sizing: border-box; --un-rotate:0; --un-rotate-x:0; --un-rotate-y:0; --un-rotate-z:0; --un-scale-x:1; --un-scale-y:1; --un-scale-z:1; --un-skew-x:0; --un-skew-y:0; --un-translate-x:0; --un-translate-y:0; --un-translate-z:0; --un-pan-x: ; --un-pan-y: ; --un-pinch-zoom: ; --un-scroll-snap-strictness:proximity; --un-ordinal: ; --un-slashed-zero: ; --un-numeric-figure: ; --un-numeric-spacing: ; --un-numeric-fraction: ; --un-border-spacing-x:0; --un-border-spacing-y:0; --un-ring-offset-shadow:0 0 rgb(0 0 0 / 0); --un-ring-shadow:0 0 rgb(0 0 0 / 0); --un-shadow-inset: ; --un-shadow:0 0 rgb(0 0 0 / 0); --un-ring-inset: ; --un-ring-offset-width:0px; --un-ring-offset-color:#fff; --un-ring-width:0px; --un-ring-color:rgb(147 197 253 / 0.5); --un-blur: ; --un-brightness: ; --un-contrast: ; --un-drop-shadow: ; --un-grayscale: ; --un-hue-rotate: ; --un-invert: ; --un-saturate: ; --un-sepia: ; --un-backdrop-blur: ; --un-backdrop-brightness: ; --un-backdrop-contrast: ; --un-backdrop-grayscale: ; --un-backdrop-hue-rotate: ; --un-backdrop-invert: ; --un-backdrop-opacity: ; --un-backdrop-saturate: ; --un-backdrop-sepia: ; font-family: var(--vp-font-family-mono); font-size: var(--vp-code-font-size); color: var(--vp-code-color); border-radius: 4px; padding: 3px 6px; background-color: var(--vp-code-bg); transition: color 0.25s ease 0s, background-color 0.5s ease 0s;&quot;&gt;-&lt;/code&gt;&amp;nbsp;Private&lt;/li&gt;&lt;li style=&quot;box-sizing: border-box; --un-rotate:0; --un-rotate-x:0; --un-rotate-y:0; --un-rotate-z:0; --un-scale-x:1; --un-scale-y:1; --un-scale-z:1; --un-skew-x:0; --un-skew-y:0; --un-translate-x:0; --un-translate-y:0; --un-translate-z:0; --un-pan-x: ; --un-pan-y: ; --un-pinch-zoom: ; --un-scroll-snap-strictness:proximity; --un-ordinal: ; --un-slashed-zero: ; --un-numeric-figure: ; --un-numeric-spacing: ; --un-numeric-fraction: ; --un-border-spacing-x:0; --un-border-spacing-y:0; --un-ring-offset-shadow:0 0 rgb(0 0 0 / 0); --un-ring-shadow:0 0 rgb(0 0 0 / 0); --un-shadow-inset: ; --un-shadow:0 0 rgb(0 0 0 / 0); --un-ring-inset: ; --un-ring-offset-width:0px; --un-ring-offset-color:#fff; --un-ring-width:0px; --un-ring-color:rgb(147 197 253 / 0.5); --un-blur: ; --un-brightness: ; --un-contrast: ; --un-drop-shadow: ; --un-grayscale: ; --un-hue-rotate: ; --un-invert: ; --un-saturate: ; --un-sepia: ; --un-backdrop-blur: ; --un-backdrop-brightness: ; --un-backdrop-contrast: ; --un-backdrop-grayscale: ; --un-backdrop-hue-rotate: ; --un-backdrop-invert: ; --un-backdrop-opacity: ; --un-backdrop-saturate: ; --un-backdrop-sepia: ; overflow-wrap: break-word; margin-top: 8px;&quot;&gt;&lt;code style=&quot;box-sizing: border-box; --un-rotate:0; --un-rotate-x:0; --un-rotate-y:0; --un-rotate-z:0; --un-scale-x:1; --un-scale-y:1; --un-scale-z:1; --un-skew-x:0; --un-skew-y:0; --un-translate-x:0; --un-translate-y:0; --un-translate-z:0; --un-pan-x: ; --un-pan-y: ; --un-pinch-zoom: ; --un-scroll-snap-strictness:proximity; --un-ordinal: ; --un-slashed-zero: ; --un-numeric-figure: ; --un-numeric-spacing: ; --un-numeric-fraction: ; --un-border-spacing-x:0; --un-border-spacing-y:0; --un-ring-offset-shadow:0 0 rgb(0 0 0 / 0); --un-ring-shadow:0 0 rgb(0 0 0 / 0); --un-shadow-inset: ; --un-shadow:0 0 rgb(0 0 0 / 0); --un-ring-inset: ; --un-ring-offset-width:0px; --un-ring-offset-color:#fff; --un-ring-width:0px; --un-ring-color:rgb(147 197 253 / 0.5); --un-blur: ; --un-brightness: ; --un-contrast: ; --un-drop-shadow: ; --un-grayscale: ; --un-hue-rotate: ; --un-invert: ; --un-saturate: ; --un-sepia: ; --un-backdrop-blur: ; --un-backdrop-brightness: ; --un-backdrop-contrast: ; --un-backdrop-grayscale: ; --un-backdrop-hue-rotate: ; --un-backdrop-invert: ; --un-backdrop-opacity: ; --un-backdrop-saturate: ; --un-backdrop-sepia: ; font-family: var(--vp-font-family-mono); font-size: var(--vp-code-font-size); color: var(--vp-code-color); border-radius: 4px; padding: 3px 6px; background-color: var(--vp-code-bg); transition: color 0.25s ease 0s, background-color 0.5s ease 0s;&quot;&gt;#&lt;/code&gt;&amp;nbsp;Protected&lt;/li&gt;&lt;li style=&quot;box-sizing: border-box; --un-rotate:0; --un-rotate-x:0; --un-rotate-y:0; --un-rotate-z:0; --un-scale-x:1; --un-scale-y:1; --un-scale-z:1; --un-skew-x:0; --un-skew-y:0; --un-translate-x:0; --un-translate-y:0; --un-translate-z:0; --un-pan-x: ; --un-pan-y: ; --un-pinch-zoom: ; --un-scroll-snap-strictness:proximity; --un-ordinal: ; --un-slashed-zero: ; --un-numeric-figure: ; --un-numeric-spacing: ; --un-numeric-fraction: ; --un-border-spacing-x:0; --un-border-spacing-y:0; --un-ring-offset-shadow:0 0 rgb(0 0 0 / 0); --un-ring-shadow:0 0 rgb(0 0 0 / 0); --un-shadow-inset: ; --un-shadow:0 0 rgb(0 0 0 / 0); --un-ring-inset: ; --un-ring-offset-width:0px; --un-ring-offset-color:#fff; --un-ring-width:0px; --un-ring-color:rgb(147 197 253 / 0.5); --un-blur: ; --un-brightness: ; --un-contrast: ; --un-drop-shadow: ; --un-grayscale: ; --un-hue-rotate: ; --un-invert: ; --un-saturate: ; --un-sepia: ; --un-backdrop-blur: ; --un-backdrop-brightness: ; --un-backdrop-contrast: ; --un-backdrop-grayscale: ; --un-backdrop-hue-rotate: ; --un-backdrop-invert: ; --un-backdrop-opacity: ; --un-backdrop-saturate: ; --un-backdrop-sepia: ; overflow-wrap: break-word; margin-top: 8px;&quot;&gt;&lt;code style=&quot;box-sizing: border-box; --un-rotate:0; --un-rotate-x:0; --un-rotate-y:0; --un-rotate-z:0; --un-scale-x:1; --un-scale-y:1; --un-scale-z:1; --un-skew-x:0; --un-skew-y:0; --un-translate-x:0; --un-translate-y:0; --un-translate-z:0; --un-pan-x: ; --un-pan-y: ; --un-pinch-zoom: ; --un-scroll-snap-strictness:proximity; --un-ordinal: ; --un-slashed-zero: ; --un-numeric-figure: ; --un-numeric-spacing: ; --un-numeric-fraction: ; --un-border-spacing-x:0; --un-border-spacing-y:0; --un-ring-offset-shadow:0 0 rgb(0 0 0 / 0); --un-ring-shadow:0 0 rgb(0 0 0 / 0); --un-shadow-inset: ; --un-shadow:0 0 rgb(0 0 0 / 0); --un-ring-inset: ; --un-ring-offset-width:0px; --un-ring-offset-color:#fff; --un-ring-width:0px; --un-ring-color:rgb(147 197 253 / 0.5); --un-blur: ; --un-brightness: ; --un-contrast: ; --un-drop-shadow: ; --un-grayscale: ; --un-hue-rotate: ; --un-invert: ; --un-saturate: ; --un-sepia: ; --un-backdrop-blur: ; --un-backdrop-brightness: ; --un-backdrop-contrast: ; --un-backdrop-grayscale: ; --un-backdrop-hue-rotate: ; --un-backdrop-invert: ; --un-backdrop-opacity: ; --un-backdrop-saturate: ; --un-backdrop-sepia: ; font-family: var(--vp-font-family-mono); font-size: var(--vp-code-font-size); color: var(--vp-code-color); border-radius: 4px; padding: 3px 6px; background-color: var(--vp-code-bg); transition: color 0.25s ease 0s, background-color 0.5s ease 0s;&quot;&gt;~&lt;/code&gt;&amp;nbsp;Package/Internal&lt;/li&gt;&lt;/ul&gt;" style="text;html=1;align=center;verticalAlign=middle;whiteSpace=wrap;rounded=0;" vertex="1" parent="1">
          <mxGeometry y="30" width="190" height="122" as="geometry" />
        </mxCell>
        <mxCell id="laANaXhgBa1lq1NqS_7K-8" value="classA" style="swimlane;fontStyle=1;align=center;verticalAlign=top;childLayout=stackLayout;horizontal=1;startSize=25;horizontalStack=0;resizeParent=1;resizeParentMax=0;resizeLast=0;collapsible=0;marginBottom=0;" vertex="1" parent="1">
          <mxGeometry x="7" y="240" width="61" height="38" as="geometry" />
        </mxCell>
        <mxCell id="laANaXhgBa1lq1NqS_7K-9" style="line;strokeWidth=1;fillColor=none;align=left;verticalAlign=middle;spacingTop=-1;spacingLeft=3;spacingRight=3;rotatable=0;labelPosition=right;points=[];portConstraint=eastwest;strokeColor=inherit;" vertex="1" parent="laANaXhgBa1lq1NqS_7K-8">
          <mxGeometry y="25" width="61" height="13" as="geometry" />
        </mxCell>
        <mxCell id="laANaXhgBa1lq1NqS_7K-10" value="classB" style="swimlane;fontStyle=1;align=center;verticalAlign=top;childLayout=stackLayout;horizontal=1;startSize=25;horizontalStack=0;resizeParent=1;resizeParentMax=0;resizeLast=0;collapsible=0;marginBottom=0;" vertex="1" parent="1">
          <mxGeometry x="8" y="367" width="60" height="38" as="geometry" />
        </mxCell>
        <mxCell id="laANaXhgBa1lq1NqS_7K-11" style="line;strokeWidth=1;fillColor=none;align=left;verticalAlign=middle;spacingTop=-1;spacingLeft=3;spacingRight=3;rotatable=0;labelPosition=right;points=[];portConstraint=eastwest;strokeColor=inherit;" vertex="1" parent="laANaXhgBa1lq1NqS_7K-10">
          <mxGeometry y="25" width="60" height="13" as="geometry" />
        </mxCell>
        <mxCell id="laANaXhgBa1lq1NqS_7K-12" value="classC" style="swimlane;fontStyle=1;align=center;verticalAlign=top;childLayout=stackLayout;horizontal=1;startSize=25;horizontalStack=0;resizeParent=1;resizeParentMax=0;resizeLast=0;collapsible=0;marginBottom=0;" vertex="1" parent="1">
          <mxGeometry x="119" y="240" width="60" height="38" as="geometry" />
        </mxCell>
        <mxCell id="laANaXhgBa1lq1NqS_7K-13" style="line;strokeWidth=1;fillColor=none;align=left;verticalAlign=middle;spacingTop=-1;spacingLeft=3;spacingRight=3;rotatable=0;labelPosition=right;points=[];portConstraint=eastwest;strokeColor=inherit;" vertex="1" parent="laANaXhgBa1lq1NqS_7K-12">
          <mxGeometry y="25" width="60" height="13" as="geometry" />
        </mxCell>
        <mxCell id="laANaXhgBa1lq1NqS_7K-14" value="classD" style="swimlane;fontStyle=1;align=center;verticalAlign=top;childLayout=stackLayout;horizontal=1;startSize=25;horizontalStack=0;resizeParent=1;resizeParentMax=0;resizeLast=0;collapsible=0;marginBottom=0;" vertex="1" parent="1">
          <mxGeometry x="118" y="367" width="61" height="38" as="geometry" />
        </mxCell>
        <mxCell id="laANaXhgBa1lq1NqS_7K-15" style="line;strokeWidth=1;fillColor=none;align=left;verticalAlign=middle;spacingTop=-1;spacingLeft=3;spacingRight=3;rotatable=0;labelPosition=right;points=[];portConstraint=eastwest;strokeColor=inherit;" vertex="1" parent="laANaXhgBa1lq1NqS_7K-14">
          <mxGeometry y="25" width="61" height="13" as="geometry" />
        </mxCell>
        <mxCell id="laANaXhgBa1lq1NqS_7K-16" value="classE" style="swimlane;fontStyle=1;align=center;verticalAlign=top;childLayout=stackLayout;horizontal=1;startSize=25;horizontalStack=0;resizeParent=1;resizeParentMax=0;resizeLast=0;collapsible=0;marginBottom=0;" vertex="1" parent="1">
          <mxGeometry x="229" y="240" width="59" height="38" as="geometry" />
        </mxCell>
        <mxCell id="laANaXhgBa1lq1NqS_7K-17" style="line;strokeWidth=1;fillColor=none;align=left;verticalAlign=middle;spacingTop=-1;spacingLeft=3;spacingRight=3;rotatable=0;labelPosition=right;points=[];portConstraint=eastwest;strokeColor=inherit;" vertex="1" parent="laANaXhgBa1lq1NqS_7K-16">
          <mxGeometry y="25" width="59" height="13" as="geometry" />
        </mxCell>
        <mxCell id="laANaXhgBa1lq1NqS_7K-18" value="classF" style="swimlane;fontStyle=1;align=center;verticalAlign=top;childLayout=stackLayout;horizontal=1;startSize=25;horizontalStack=0;resizeParent=1;resizeParentMax=0;resizeLast=0;collapsible=0;marginBottom=0;" vertex="1" parent="1">
          <mxGeometry x="229" y="367" width="60" height="38" as="geometry" />
        </mxCell>
        <mxCell id="laANaXhgBa1lq1NqS_7K-19" style="line;strokeWidth=1;fillColor=none;align=left;verticalAlign=middle;spacingTop=-1;spacingLeft=3;spacingRight=3;rotatable=0;labelPosition=right;points=[];portConstraint=eastwest;strokeColor=inherit;" vertex="1" parent="laANaXhgBa1lq1NqS_7K-18">
          <mxGeometry y="25" width="60" height="13" as="geometry" />
        </mxCell>
        <mxCell id="laANaXhgBa1lq1NqS_7K-20" value="classG" style="swimlane;fontStyle=1;align=center;verticalAlign=top;childLayout=stackLayout;horizontal=1;startSize=25;horizontalStack=0;resizeParent=1;resizeParentMax=0;resizeLast=0;collapsible=0;marginBottom=0;" vertex="1" parent="1">
          <mxGeometry x="339" y="240" width="61" height="38" as="geometry" />
        </mxCell>
        <mxCell id="laANaXhgBa1lq1NqS_7K-21" style="line;strokeWidth=1;fillColor=none;align=left;verticalAlign=middle;spacingTop=-1;spacingLeft=3;spacingRight=3;rotatable=0;labelPosition=right;points=[];portConstraint=eastwest;strokeColor=inherit;" vertex="1" parent="laANaXhgBa1lq1NqS_7K-20">
          <mxGeometry y="25" width="61" height="13" as="geometry" />
        </mxCell>
        <mxCell id="laANaXhgBa1lq1NqS_7K-22" value="classH" style="swimlane;fontStyle=1;align=center;verticalAlign=top;childLayout=stackLayout;horizontal=1;startSize=25;horizontalStack=0;resizeParent=1;resizeParentMax=0;resizeLast=0;collapsible=0;marginBottom=0;" vertex="1" parent="1">
          <mxGeometry x="339" y="367" width="61" height="38" as="geometry" />
        </mxCell>
        <mxCell id="laANaXhgBa1lq1NqS_7K-23" style="line;strokeWidth=1;fillColor=none;align=left;verticalAlign=middle;spacingTop=-1;spacingLeft=3;spacingRight=3;rotatable=0;labelPosition=right;points=[];portConstraint=eastwest;strokeColor=inherit;" vertex="1" parent="laANaXhgBa1lq1NqS_7K-22">
          <mxGeometry y="25" width="61" height="13" as="geometry" />
        </mxCell>
        <mxCell id="laANaXhgBa1lq1NqS_7K-24" value="classI" style="swimlane;fontStyle=1;align=center;verticalAlign=top;childLayout=stackLayout;horizontal=1;startSize=25;horizontalStack=0;resizeParent=1;resizeParentMax=0;resizeLast=0;collapsible=0;marginBottom=0;" vertex="1" parent="1">
          <mxGeometry x="452" y="240" width="55" height="38" as="geometry" />
        </mxCell>
        <mxCell id="laANaXhgBa1lq1NqS_7K-25" style="line;strokeWidth=1;fillColor=none;align=left;verticalAlign=middle;spacingTop=-1;spacingLeft=3;spacingRight=3;rotatable=0;labelPosition=right;points=[];portConstraint=eastwest;strokeColor=inherit;" vertex="1" parent="laANaXhgBa1lq1NqS_7K-24">
          <mxGeometry y="25" width="55" height="13" as="geometry" />
        </mxCell>
        <mxCell id="laANaXhgBa1lq1NqS_7K-26" value="classJ" style="swimlane;fontStyle=1;align=center;verticalAlign=top;childLayout=stackLayout;horizontal=1;startSize=25;horizontalStack=0;resizeParent=1;resizeParentMax=0;resizeLast=0;collapsible=0;marginBottom=0;" vertex="1" parent="1">
          <mxGeometry x="450" y="367" width="59" height="38" as="geometry" />
        </mxCell>
        <mxCell id="laANaXhgBa1lq1NqS_7K-27" style="line;strokeWidth=1;fillColor=none;align=left;verticalAlign=middle;spacingTop=-1;spacingLeft=3;spacingRight=3;rotatable=0;labelPosition=right;points=[];portConstraint=eastwest;strokeColor=inherit;" vertex="1" parent="laANaXhgBa1lq1NqS_7K-26">
          <mxGeometry y="25" width="59" height="13" as="geometry" />
        </mxCell>
        <mxCell id="laANaXhgBa1lq1NqS_7K-28" value="classK" style="swimlane;fontStyle=1;align=center;verticalAlign=top;childLayout=stackLayout;horizontal=1;startSize=25;horizontalStack=0;resizeParent=1;resizeParentMax=0;resizeLast=0;collapsible=0;marginBottom=0;" vertex="1" parent="1">
          <mxGeometry x="558" y="240" width="61" height="38" as="geometry" />
        </mxCell>
        <mxCell id="laANaXhgBa1lq1NqS_7K-29" style="line;strokeWidth=1;fillColor=none;align=left;verticalAlign=middle;spacingTop=-1;spacingLeft=3;spacingRight=3;rotatable=0;labelPosition=right;points=[];portConstraint=eastwest;strokeColor=inherit;" vertex="1" parent="laANaXhgBa1lq1NqS_7K-28">
          <mxGeometry y="25" width="61" height="13" as="geometry" />
        </mxCell>
        <mxCell id="laANaXhgBa1lq1NqS_7K-30" value="classL" style="swimlane;fontStyle=1;align=center;verticalAlign=top;childLayout=stackLayout;horizontal=1;startSize=25;horizontalStack=0;resizeParent=1;resizeParentMax=0;resizeLast=0;collapsible=0;marginBottom=0;" vertex="1" parent="1">
          <mxGeometry x="559" y="367" width="59" height="38" as="geometry" />
        </mxCell>
        <mxCell id="laANaXhgBa1lq1NqS_7K-31" style="line;strokeWidth=1;fillColor=none;align=left;verticalAlign=middle;spacingTop=-1;spacingLeft=3;spacingRight=3;rotatable=0;labelPosition=right;points=[];portConstraint=eastwest;strokeColor=inherit;" vertex="1" parent="laANaXhgBa1lq1NqS_7K-30">
          <mxGeometry y="25" width="59" height="13" as="geometry" />
        </mxCell>
        <mxCell id="laANaXhgBa1lq1NqS_7K-32" value="classM" style="swimlane;fontStyle=1;align=center;verticalAlign=top;childLayout=stackLayout;horizontal=1;startSize=25;horizontalStack=0;resizeParent=1;resizeParentMax=0;resizeLast=0;collapsible=0;marginBottom=0;" vertex="1" parent="1">
          <mxGeometry x="669" y="240" width="63" height="38" as="geometry" />
        </mxCell>
        <mxCell id="laANaXhgBa1lq1NqS_7K-33" style="line;strokeWidth=1;fillColor=none;align=left;verticalAlign=middle;spacingTop=-1;spacingLeft=3;spacingRight=3;rotatable=0;labelPosition=right;points=[];portConstraint=eastwest;strokeColor=inherit;" vertex="1" parent="laANaXhgBa1lq1NqS_7K-32">
          <mxGeometry y="25" width="63" height="13" as="geometry" />
        </mxCell>
        <mxCell id="laANaXhgBa1lq1NqS_7K-34" value="classN" style="swimlane;fontStyle=1;align=center;verticalAlign=top;childLayout=stackLayout;horizontal=1;startSize=25;horizontalStack=0;resizeParent=1;resizeParentMax=0;resizeLast=0;collapsible=0;marginBottom=0;" vertex="1" parent="1">
          <mxGeometry x="670" y="367" width="61" height="38" as="geometry" />
        </mxCell>
        <mxCell id="laANaXhgBa1lq1NqS_7K-35" style="line;strokeWidth=1;fillColor=none;align=left;verticalAlign=middle;spacingTop=-1;spacingLeft=3;spacingRight=3;rotatable=0;labelPosition=right;points=[];portConstraint=eastwest;strokeColor=inherit;" vertex="1" parent="laANaXhgBa1lq1NqS_7K-34">
          <mxGeometry y="25" width="61" height="13" as="geometry" />
        </mxCell>
        <mxCell id="laANaXhgBa1lq1NqS_7K-36" value="classO" style="swimlane;fontStyle=1;align=center;verticalAlign=top;childLayout=stackLayout;horizontal=1;startSize=25;horizontalStack=0;resizeParent=1;resizeParentMax=0;resizeLast=0;collapsible=0;marginBottom=0;" vertex="1" parent="1">
          <mxGeometry x="782" y="240" width="61" height="38" as="geometry" />
        </mxCell>
        <mxCell id="laANaXhgBa1lq1NqS_7K-37" style="line;strokeWidth=1;fillColor=none;align=left;verticalAlign=middle;spacingTop=-1;spacingLeft=3;spacingRight=3;rotatable=0;labelPosition=right;points=[];portConstraint=eastwest;strokeColor=inherit;" vertex="1" parent="laANaXhgBa1lq1NqS_7K-36">
          <mxGeometry y="25" width="61" height="13" as="geometry" />
        </mxCell>
        <mxCell id="laANaXhgBa1lq1NqS_7K-38" value="classP" style="swimlane;fontStyle=1;align=center;verticalAlign=top;childLayout=stackLayout;horizontal=1;startSize=25;horizontalStack=0;resizeParent=1;resizeParentMax=0;resizeLast=0;collapsible=0;marginBottom=0;" vertex="1" parent="1">
          <mxGeometry x="783" y="367" width="60" height="38" as="geometry" />
        </mxCell>
        <mxCell id="laANaXhgBa1lq1NqS_7K-39" style="line;strokeWidth=1;fillColor=none;align=left;verticalAlign=middle;spacingTop=-1;spacingLeft=3;spacingRight=3;rotatable=0;labelPosition=right;points=[];portConstraint=eastwest;strokeColor=inherit;" vertex="1" parent="laANaXhgBa1lq1NqS_7K-38">
          <mxGeometry y="25" width="60" height="13" as="geometry" />
        </mxCell>
        <mxCell id="laANaXhgBa1lq1NqS_7K-40" value="Inheritance" style="curved=1;startArrow=none;endArrow=block;endSize=16;endFill=0;exitX=0.51;exitY=1;entryX=0.5;entryY=0;rounded=0;" edge="1" parent="1" source="laANaXhgBa1lq1NqS_7K-8" target="laANaXhgBa1lq1NqS_7K-10">
          <mxGeometry relative="1" as="geometry">
            <Array as="points" />
          </mxGeometry>
        </mxCell>
        <mxCell id="laANaXhgBa1lq1NqS_7K-41" value="Composition" style="curved=1;startArrow=none;endArrow=diamondThin;endSize=14;endFill=1;exitX=0.49;exitY=1;entryX=0.5;entryY=0;rounded=0;" edge="1" parent="1" source="laANaXhgBa1lq1NqS_7K-12" target="laANaXhgBa1lq1NqS_7K-14">
          <mxGeometry relative="1" as="geometry">
            <Array as="points" />
          </mxGeometry>
        </mxCell>
        <mxCell id="laANaXhgBa1lq1NqS_7K-42" value="Aggregation" style="curved=1;startArrow=none;endArrow=diamondThin;endSize=14;endFill=0;exitX=0.51;exitY=1;entryX=0.5;entryY=0;rounded=0;" edge="1" parent="1" source="laANaXhgBa1lq1NqS_7K-16" target="laANaXhgBa1lq1NqS_7K-18">
          <mxGeometry relative="1" as="geometry">
            <Array as="points" />
          </mxGeometry>
        </mxCell>
        <mxCell id="laANaXhgBa1lq1NqS_7K-43" value="Association" style="curved=1;startArrow=none;endArrow=open;endSize=12;exitX=0.5;exitY=1;entryX=0.5;entryY=0;rounded=0;" edge="1" parent="1" source="laANaXhgBa1lq1NqS_7K-20" target="laANaXhgBa1lq1NqS_7K-22">
          <mxGeometry relative="1" as="geometry">
            <Array as="points" />
          </mxGeometry>
        </mxCell>
        <mxCell id="laANaXhgBa1lq1NqS_7K-44" value="Link(Solid)" style="curved=1;startArrow=none;endArrow=none;exitX=0.5;exitY=1;entryX=0.5;entryY=0;rounded=0;" edge="1" parent="1" source="laANaXhgBa1lq1NqS_7K-24" target="laANaXhgBa1lq1NqS_7K-26">
          <mxGeometry relative="1" as="geometry">
            <Array as="points" />
          </mxGeometry>
        </mxCell>
        <mxCell id="laANaXhgBa1lq1NqS_7K-45" value="Dependency" style="curved=1;dashed=1;startArrow=none;endArrow=open;endSize=12;exitX=0.5;exitY=1;entryX=0.5;entryY=0;rounded=0;" edge="1" parent="1" source="laANaXhgBa1lq1NqS_7K-28" target="laANaXhgBa1lq1NqS_7K-30">
          <mxGeometry relative="1" as="geometry">
            <Array as="points" />
          </mxGeometry>
        </mxCell>
        <mxCell id="laANaXhgBa1lq1NqS_7K-46" value="Realization" style="curved=1;dashed=1;startArrow=none;endArrow=block;endSize=16;endFill=0;exitX=0.51;exitY=1;entryX=0.51;entryY=0;rounded=0;" edge="1" parent="1" source="laANaXhgBa1lq1NqS_7K-32" target="laANaXhgBa1lq1NqS_7K-34">
          <mxGeometry relative="1" as="geometry">
            <Array as="points" />
          </mxGeometry>
        </mxCell>
        <mxCell id="laANaXhgBa1lq1NqS_7K-47" value="Link(Dashed)" style="curved=1;dashed=1;startArrow=none;endArrow=none;exitX=0.51;exitY=1;entryX=0.5;entryY=0;rounded=0;" edge="1" parent="1" source="laANaXhgBa1lq1NqS_7K-36" target="laANaXhgBa1lq1NqS_7K-38">
          <mxGeometry relative="1" as="geometry">
            <Array as="points" />
          </mxGeometry>
        </mxCell>
        <mxCell id="laANaXhgBa1lq1NqS_7K-48" value="&amp;laquo;interface&amp;raquo;&lt;br&gt;&lt;b&gt;Name&lt;/b&gt;" style="html=1;whiteSpace=wrap;" vertex="1" parent="1">
          <mxGeometry x="740" y="60" width="110" height="50" as="geometry" />
        </mxCell>
        <mxCell id="laANaXhgBa1lq1NqS_7K-50" value="&lt;ul style=&quot;box-sizing: border-box; --un-rotate:0; --un-rotate-x:0; --un-rotate-y:0; --un-rotate-z:0; --un-scale-x:1; --un-scale-y:1; --un-scale-z:1; --un-skew-x:0; --un-skew-y:0; --un-translate-x:0; --un-translate-y:0; --un-translate-z:0; --un-pan-x: ; --un-pan-y: ; --un-pinch-zoom: ; --un-scroll-snap-strictness:proximity; --un-ordinal: ; --un-slashed-zero: ; --un-numeric-figure: ; --un-numeric-spacing: ; --un-numeric-fraction: ; --un-border-spacing-x:0; --un-border-spacing-y:0; --un-ring-offset-shadow:0 0 rgb(0 0 0 / 0); --un-ring-shadow:0 0 rgb(0 0 0 / 0); --un-shadow-inset: ; --un-shadow:0 0 rgb(0 0 0 / 0); --un-ring-inset: ; --un-ring-offset-width:0px; --un-ring-offset-color:#fff; --un-ring-width:0px; --un-ring-color:rgb(147 197 253 / 0.5); --un-blur: ; --un-brightness: ; --un-contrast: ; --un-drop-shadow: ; --un-grayscale: ; --un-hue-rotate: ; --un-invert: ; --un-saturate: ; --un-sepia: ; --un-backdrop-blur: ; --un-backdrop-brightness: ; --un-backdrop-contrast: ; --un-backdrop-grayscale: ; --un-backdrop-hue-rotate: ; --un-backdrop-invert: ; --un-backdrop-opacity: ; --un-backdrop-saturate: ; --un-backdrop-sepia: ; list-style-position: initial; list-style-image: initial; margin: 16px 0px; padding: 0px 0px 0px 1.25rem; color: rgb(60, 60, 67); font-family: &amp;quot;Chinese Quotes&amp;quot;, &amp;quot;Inter var&amp;quot;, Inter, ui-sans-serif, system-ui, -apple-system, BlinkMacSystemFont, &amp;quot;Segoe UI&amp;quot;, Roboto, &amp;quot;Helvetica Neue&amp;quot;, Helvetica, Arial, &amp;quot;Noto Sans&amp;quot;, sans-serif, &amp;quot;Apple Color Emoji&amp;quot;, &amp;quot;Segoe UI Emoji&amp;quot;, &amp;quot;Segoe UI Symbol&amp;quot;, &amp;quot;Noto Color Emoji&amp;quot;; font-size: 16px; text-align: start; background-color: rgb(255, 255, 255);&quot;&gt;&lt;li style=&quot;box-sizing: border-box; --un-rotate:0; --un-rotate-x:0; --un-rotate-y:0; --un-rotate-z:0; --un-scale-x:1; --un-scale-y:1; --un-scale-z:1; --un-skew-x:0; --un-skew-y:0; --un-translate-x:0; --un-translate-y:0; --un-translate-z:0; --un-pan-x: ; --un-pan-y: ; --un-pinch-zoom: ; --un-scroll-snap-strictness:proximity; --un-ordinal: ; --un-slashed-zero: ; --un-numeric-figure: ; --un-numeric-spacing: ; --un-numeric-fraction: ; --un-border-spacing-x:0; --un-border-spacing-y:0; --un-ring-offset-shadow:0 0 rgb(0 0 0 / 0); --un-ring-shadow:0 0 rgb(0 0 0 / 0); --un-shadow-inset: ; --un-shadow:0 0 rgb(0 0 0 / 0); --un-ring-inset: ; --un-ring-offset-width:0px; --un-ring-offset-color:#fff; --un-ring-width:0px; --un-ring-color:rgb(147 197 253 / 0.5); --un-blur: ; --un-brightness: ; --un-contrast: ; --un-drop-shadow: ; --un-grayscale: ; --un-hue-rotate: ; --un-invert: ; --un-saturate: ; --un-sepia: ; --un-backdrop-blur: ; --un-backdrop-brightness: ; --un-backdrop-contrast: ; --un-backdrop-grayscale: ; --un-backdrop-hue-rotate: ; --un-backdrop-invert: ; --un-backdrop-opacity: ; --un-backdrop-saturate: ; --un-backdrop-sepia: ; overflow-wrap: break-word;&quot;&gt;&lt;code style=&quot;box-sizing: border-box; --un-rotate:0; --un-rotate-x:0; --un-rotate-y:0; --un-rotate-z:0; --un-scale-x:1; --un-scale-y:1; --un-scale-z:1; --un-skew-x:0; --un-skew-y:0; --un-translate-x:0; --un-translate-y:0; --un-translate-z:0; --un-pan-x: ; --un-pan-y: ; --un-pinch-zoom: ; --un-scroll-snap-strictness:proximity; --un-ordinal: ; --un-slashed-zero: ; --un-numeric-figure: ; --un-numeric-spacing: ; --un-numeric-fraction: ; --un-border-spacing-x:0; --un-border-spacing-y:0; --un-ring-offset-shadow:0 0 rgb(0 0 0 / 0); --un-ring-shadow:0 0 rgb(0 0 0 / 0); --un-shadow-inset: ; --un-shadow:0 0 rgb(0 0 0 / 0); --un-ring-inset: ; --un-ring-offset-width:0px; --un-ring-offset-color:#fff; --un-ring-width:0px; --un-ring-color:rgb(147 197 253 / 0.5); --un-blur: ; --un-brightness: ; --un-contrast: ; --un-drop-shadow: ; --un-grayscale: ; --un-hue-rotate: ; --un-invert: ; --un-saturate: ; --un-sepia: ; --un-backdrop-blur: ; --un-backdrop-brightness: ; --un-backdrop-contrast: ; --un-backdrop-grayscale: ; --un-backdrop-hue-rotate: ; --un-backdrop-invert: ; --un-backdrop-opacity: ; --un-backdrop-saturate: ; --un-backdrop-sepia: ; font-family: var(--vp-font-family-mono); font-size: var(--vp-code-font-size); color: var(--vp-code-color); border-radius: 4px; padding: 3px 6px; background-color: var(--vp-code-bg); transition: color 0.25s ease 0s, background-color 0.5s ease 0s;&quot;&gt;&amp;lt;&amp;lt;Interface&amp;gt;&amp;gt;&lt;/code&gt;&amp;nbsp;Interface&amp;nbsp;&lt;/li&gt;&lt;li style=&quot;box-sizing: border-box; --un-rotate:0; --un-rotate-x:0; --un-rotate-y:0; --un-rotate-z:0; --un-scale-x:1; --un-scale-y:1; --un-scale-z:1; --un-skew-x:0; --un-skew-y:0; --un-translate-x:0; --un-translate-y:0; --un-translate-z:0; --un-pan-x: ; --un-pan-y: ; --un-pinch-zoom: ; --un-scroll-snap-strictness:proximity; --un-ordinal: ; --un-slashed-zero: ; --un-numeric-figure: ; --un-numeric-spacing: ; --un-numeric-fraction: ; --un-border-spacing-x:0; --un-border-spacing-y:0; --un-ring-offset-shadow:0 0 rgb(0 0 0 / 0); --un-ring-shadow:0 0 rgb(0 0 0 / 0); --un-shadow-inset: ; --un-shadow:0 0 rgb(0 0 0 / 0); --un-ring-inset: ; --un-ring-offset-width:0px; --un-ring-offset-color:#fff; --un-ring-width:0px; --un-ring-color:rgb(147 197 253 / 0.5); --un-blur: ; --un-brightness: ; --un-contrast: ; --un-drop-shadow: ; --un-grayscale: ; --un-hue-rotate: ; --un-invert: ; --un-saturate: ; --un-sepia: ; --un-backdrop-blur: ; --un-backdrop-brightness: ; --un-backdrop-contrast: ; --un-backdrop-grayscale: ; --un-backdrop-hue-rotate: ; --un-backdrop-invert: ; --un-backdrop-opacity: ; --un-backdrop-saturate: ; --un-backdrop-sepia: ; overflow-wrap: break-word; margin-top: 8px;&quot;&gt;&lt;code style=&quot;box-sizing: border-box; --un-rotate:0; --un-rotate-x:0; --un-rotate-y:0; --un-rotate-z:0; --un-scale-x:1; --un-scale-y:1; --un-scale-z:1; --un-skew-x:0; --un-skew-y:0; --un-translate-x:0; --un-translate-y:0; --un-translate-z:0; --un-pan-x: ; --un-pan-y: ; --un-pinch-zoom: ; --un-scroll-snap-strictness:proximity; --un-ordinal: ; --un-slashed-zero: ; --un-numeric-figure: ; --un-numeric-spacing: ; --un-numeric-fraction: ; --un-border-spacing-x:0; --un-border-spacing-y:0; --un-ring-offset-shadow:0 0 rgb(0 0 0 / 0); --un-ring-shadow:0 0 rgb(0 0 0 / 0); --un-shadow-inset: ; --un-shadow:0 0 rgb(0 0 0 / 0); --un-ring-inset: ; --un-ring-offset-width:0px; --un-ring-offset-color:#fff; --un-ring-width:0px; --un-ring-color:rgb(147 197 253 / 0.5); --un-blur: ; --un-brightness: ; --un-contrast: ; --un-drop-shadow: ; --un-grayscale: ; --un-hue-rotate: ; --un-invert: ; --un-saturate: ; --un-sepia: ; --un-backdrop-blur: ; --un-backdrop-brightness: ; --un-backdrop-contrast: ; --un-backdrop-grayscale: ; --un-backdrop-hue-rotate: ; --un-backdrop-invert: ; --un-backdrop-opacity: ; --un-backdrop-saturate: ; --un-backdrop-sepia: ; font-family: var(--vp-font-family-mono); font-size: var(--vp-code-font-size); color: var(--vp-code-color); border-radius: 4px; padding: 3px 6px; background-color: var(--vp-code-bg); transition: color 0.25s ease 0s, background-color 0.5s ease 0s;&quot;&gt;&amp;lt;&amp;lt;Abstract&amp;gt;&amp;gt;&lt;/code&gt;&amp;nbsp;abstract class&lt;/li&gt;&lt;li style=&quot;box-sizing: border-box; --un-rotate:0; --un-rotate-x:0; --un-rotate-y:0; --un-rotate-z:0; --un-scale-x:1; --un-scale-y:1; --un-scale-z:1; --un-skew-x:0; --un-skew-y:0; --un-translate-x:0; --un-translate-y:0; --un-translate-z:0; --un-pan-x: ; --un-pan-y: ; --un-pinch-zoom: ; --un-scroll-snap-strictness:proximity; --un-ordinal: ; --un-slashed-zero: ; --un-numeric-figure: ; --un-numeric-spacing: ; --un-numeric-fraction: ; --un-border-spacing-x:0; --un-border-spacing-y:0; --un-ring-offset-shadow:0 0 rgb(0 0 0 / 0); --un-ring-shadow:0 0 rgb(0 0 0 / 0); --un-shadow-inset: ; --un-shadow:0 0 rgb(0 0 0 / 0); --un-ring-inset: ; --un-ring-offset-width:0px; --un-ring-offset-color:#fff; --un-ring-width:0px; --un-ring-color:rgb(147 197 253 / 0.5); --un-blur: ; --un-brightness: ; --un-contrast: ; --un-drop-shadow: ; --un-grayscale: ; --un-hue-rotate: ; --un-invert: ; --un-saturate: ; --un-sepia: ; --un-backdrop-blur: ; --un-backdrop-brightness: ; --un-backdrop-contrast: ; --un-backdrop-grayscale: ; --un-backdrop-hue-rotate: ; --un-backdrop-invert: ; --un-backdrop-opacity: ; --un-backdrop-saturate: ; --un-backdrop-sepia: ; overflow-wrap: break-word; margin-top: 8px;&quot;&gt;&lt;code style=&quot;box-sizing: border-box; --un-rotate:0; --un-rotate-x:0; --un-rotate-y:0; --un-rotate-z:0; --un-scale-x:1; --un-scale-y:1; --un-scale-z:1; --un-skew-x:0; --un-skew-y:0; --un-translate-x:0; --un-translate-y:0; --un-translate-z:0; --un-pan-x: ; --un-pan-y: ; --un-pinch-zoom: ; --un-scroll-snap-strictness:proximity; --un-ordinal: ; --un-slashed-zero: ; --un-numeric-figure: ; --un-numeric-spacing: ; --un-numeric-fraction: ; --un-border-spacing-x:0; --un-border-spacing-y:0; --un-ring-offset-shadow:0 0 rgb(0 0 0 / 0); --un-ring-shadow:0 0 rgb(0 0 0 / 0); --un-shadow-inset: ; --un-shadow:0 0 rgb(0 0 0 / 0); --un-ring-inset: ; --un-ring-offset-width:0px; --un-ring-offset-color:#fff; --un-ring-width:0px; --un-ring-color:rgb(147 197 253 / 0.5); --un-blur: ; --un-brightness: ; --un-contrast: ; --un-drop-shadow: ; --un-grayscale: ; --un-hue-rotate: ; --un-invert: ; --un-saturate: ; --un-sepia: ; --un-backdrop-blur: ; --un-backdrop-brightness: ; --un-backdrop-contrast: ; --un-backdrop-grayscale: ; --un-backdrop-hue-rotate: ; --un-backdrop-invert: ; --un-backdrop-opacity: ; --un-backdrop-saturate: ; --un-backdrop-sepia: ; font-family: var(--vp-font-family-mono); font-size: var(--vp-code-font-size); color: var(--vp-code-color); border-radius: 4px; padding: 3px 6px; background-color: var(--vp-code-bg); transition: color 0.25s ease 0s, background-color 0.5s ease 0s;&quot;&gt;&amp;lt;&amp;lt;Service&amp;gt;&amp;gt;&lt;/code&gt;service class&lt;/li&gt;&lt;li style=&quot;box-sizing: border-box; --un-rotate:0; --un-rotate-x:0; --un-rotate-y:0; --un-rotate-z:0; --un-scale-x:1; --un-scale-y:1; --un-scale-z:1; --un-skew-x:0; --un-skew-y:0; --un-translate-x:0; --un-translate-y:0; --un-translate-z:0; --un-pan-x: ; --un-pan-y: ; --un-pinch-zoom: ; --un-scroll-snap-strictness:proximity; --un-ordinal: ; --un-slashed-zero: ; --un-numeric-figure: ; --un-numeric-spacing: ; --un-numeric-fraction: ; --un-border-spacing-x:0; --un-border-spacing-y:0; --un-ring-offset-shadow:0 0 rgb(0 0 0 / 0); --un-ring-shadow:0 0 rgb(0 0 0 / 0); --un-shadow-inset: ; --un-shadow:0 0 rgb(0 0 0 / 0); --un-ring-inset: ; --un-ring-offset-width:0px; --un-ring-offset-color:#fff; --un-ring-width:0px; --un-ring-color:rgb(147 197 253 / 0.5); --un-blur: ; --un-brightness: ; --un-contrast: ; --un-drop-shadow: ; --un-grayscale: ; --un-hue-rotate: ; --un-invert: ; --un-saturate: ; --un-sepia: ; --un-backdrop-blur: ; --un-backdrop-brightness: ; --un-backdrop-contrast: ; --un-backdrop-grayscale: ; --un-backdrop-hue-rotate: ; --un-backdrop-invert: ; --un-backdrop-opacity: ; --un-backdrop-saturate: ; --un-backdrop-sepia: ; overflow-wrap: break-word; margin-top: 8px;&quot;&gt;&lt;code style=&quot;box-sizing: border-box; --un-rotate:0; --un-rotate-x:0; --un-rotate-y:0; --un-rotate-z:0; --un-scale-x:1; --un-scale-y:1; --un-scale-z:1; --un-skew-x:0; --un-skew-y:0; --un-translate-x:0; --un-translate-y:0; --un-translate-z:0; --un-pan-x: ; --un-pan-y: ; --un-pinch-zoom: ; --un-scroll-snap-strictness:proximity; --un-ordinal: ; --un-slashed-zero: ; --un-numeric-figure: ; --un-numeric-spacing: ; --un-numeric-fraction: ; --un-border-spacing-x:0; --un-border-spacing-y:0; --un-ring-offset-shadow:0 0 rgb(0 0 0 / 0); --un-ring-shadow:0 0 rgb(0 0 0 / 0); --un-shadow-inset: ; --un-shadow:0 0 rgb(0 0 0 / 0); --un-ring-inset: ; --un-ring-offset-width:0px; --un-ring-offset-color:#fff; --un-ring-width:0px; --un-ring-color:rgb(147 197 253 / 0.5); --un-blur: ; --un-brightness: ; --un-contrast: ; --un-drop-shadow: ; --un-grayscale: ; --un-hue-rotate: ; --un-invert: ; --un-saturate: ; --un-sepia: ; --un-backdrop-blur: ; --un-backdrop-brightness: ; --un-backdrop-contrast: ; --un-backdrop-grayscale: ; --un-backdrop-hue-rotate: ; --un-backdrop-invert: ; --un-backdrop-opacity: ; --un-backdrop-saturate: ; --un-backdrop-sepia: ; font-family: var(--vp-font-family-mono); font-size: var(--vp-code-font-size); color: var(--vp-code-color); border-radius: 4px; padding: 3px 6px; background-color: var(--vp-code-bg); transition: color 0.25s ease 0s, background-color 0.5s ease 0s;&quot;&gt;&amp;lt;&amp;lt;Enumeration&amp;gt;&amp;gt;&lt;/code&gt;&amp;nbsp; enum&lt;/li&gt;&lt;/ul&gt;" style="text;html=1;align=center;verticalAlign=middle;whiteSpace=wrap;rounded=0;" vertex="1" parent="1">
          <mxGeometry x="445" y="40" width="250" height="120" as="geometry" />
        </mxCell>
      </root>
    </mxGraphModel>
  </diagram>
</mxfile>
